<svg xmlns:dc="http://purl.org/dc/elements/1.1/" xmlns:cc="http://creativecommons.org/ns#" xmlns:rdf="http://www.w3.org/1999/02/22-rdf-syntax-ns#" xmlns:svg="http://www.w3.org/2000/svg" xmlns="http://www.w3.org/2000/svg" xmlns:sodipodi="http://sodipodi.sourceforge.net/DTD/sodipodi-0.dtd" xmlns:inkscape="http://www.inkscape.org/namespaces/inkscape" version="1.1" id="svg8" inkscape:version="0.92.4 (5da689c313, 2019-01-14)" sodipodi:docname="recnn3.svg" viewBox="48.27 109.74 110.22 19">
  <defs id="defs2"/>
  <sodipodi:namedview id="base" pagecolor="#ffffff" bordercolor="#666666" borderopacity="1.0" inkscape:pageopacity="0.0" inkscape:pageshadow="2" inkscape:zoom="0.7" inkscape:cx="171.90062" inkscape:cy="436.85605" inkscape:document-units="mm" inkscape:current-layer="layer1" showgrid="false" inkscape:window-width="2560" inkscape:window-height="1017" inkscape:window-x="-8" inkscape:window-y="-8" inkscape:window-maximized="1"/>
  <metadata id="metadata5">
    <rdf:RDF>
      <cc:Work rdf:about="">
        <dc:format>image/svg+xml</dc:format>
        <dc:type rdf:resource="http://purl.org/dc/dcmitype/StillImage"/>
        <dc:title/>
      </cc:Work>
    </rdf:RDF>
  </metadata>
  <g inkscape:label="Layer 1" inkscape:groupmode="layer" id="layer1">
    <g id="flowRoot815" style="font-style:normal;font-variant:normal;font-weight:normal;font-stretch:normal;font-size:5.33333349px;line-height:1.25;font-family:sans-serif;-inkscape-font-specification:sans-serif;letter-spacing:0px;word-spacing:0px;fill:#38f17e;fill-opacity:1;stroke:none" transform="matrix(0.31671798,0,0,0.31671798,65.377357,70.215322)" aria-label="RecNN">
      <path inkscape:connector-curvature="0" id="path6753" style="font-style:italic;font-variant:normal;font-weight:normal;font-stretch:normal;font-size:96px;font-family:'Robot Reavers';-inkscape-font-specification:'Robot Reavers Italic';fill:#38f17e;fill-opacity:1" d="m -42,136.80469 v 12 h 36 v -12 z m 7.6875,24 -7.6875,-7.6875 v 31.6875 h -12 v -60 h 48 q 12,0 12,12 v 12 q 0,12 -11.8125,12 H -18 l 24,24 h -16.3125 z"/>
      <path inkscape:connector-curvature="0" id="path6755" style="font-style:italic;font-variant:normal;font-weight:normal;font-stretch:normal;font-size:96px;font-family:'Robot Reavers';-inkscape-font-specification:'Robot Reavers Italic';fill:#38f17e;fill-opacity:1" d="m 78,124.80469 v 12 H 18 v -12 z m 0,24 v 12 H 18 v -12 z m 0,24 v 12 H 18 v -12 z"/>
      <path inkscape:connector-curvature="0" id="path6757" style="font-style:italic;font-variant:normal;font-weight:normal;font-stretch:normal;font-size:96px;font-family:'Robot Reavers';-inkscape-font-specification:'Robot Reavers Italic';fill:#38f17e;fill-opacity:1" d="m 90,172.80469 v -36 q 0,-12 12,-12 h 48 v 12 h -48 v 36 h 48 v 12 h -48 q -12,0 -12,-12 z"/>
      <path inkscape:connector-curvature="0" id="path6759" style="font-style:italic;font-variant:normal;font-weight:normal;font-stretch:normal;font-size:96px;font-family:'Robot Reavers';-inkscape-font-specification:'Robot Reavers Italic';fill:#38f17e;fill-opacity:1" d="m 162,184.80469 v -60 l 48,36 v -36 h 12 v 60 l -48,-36 v 36 z"/>
      <path inkscape:connector-curvature="0" id="path6761" style="font-style:italic;font-variant:normal;font-weight:normal;font-stretch:normal;font-size:96px;font-family:'Robot Reavers';-inkscape-font-specification:'Robot Reavers Italic';fill:#38f17e;fill-opacity:1" d="m 234,184.80469 v -60 l 48,36 v -36 h 12 v 60 l -48,-36 v 36 z"/>
    </g>
  </g>
</svg>